<?xml version="1.0" encoding="iso-8859-1"?>
<!-- Generator: Adobe Illustrator 19.0.0, SVG Export Plug-In . SVG Version: 6.00 Build 0)  -->
<svg version="1.1" id="Capa_1" xmlns="http://www.w3.org/2000/svg" xmlns:xlink="http://www.w3.org/1999/xlink" x="0px" y="0px"
	 viewBox="0 0 512 512" style="enable-background:new 0 0 512 512;" xml:space="preserve">
<g>
	<g>
		<g>
			<path style="fill:#95A5A5;" d="M466.361,95.338C443.841,37.828,388.383-0.009,326.621,0H185.379
				C123.617-0.009,68.159,37.828,45.639,95.338H466.361z"/>
			<rect x="220.69" y="378.227" style="fill:#95A5A5;" width="70.621" height="126.314"/>
		</g>
		<path style="fill:#BDC3C7;" d="M176.552,476.69h150.069c9.751,0,17.655,7.904,17.655,17.655V512H158.897v-17.655
			C158.897,484.594,166.801,476.69,176.552,476.69z"/>
		<polygon style="fill:#2C3E50;" points="291.31,476.69 256,512 220.69,512 256,476.69 		"/>
		<g>
			<path style="fill:#BDC3C7;" d="M150.069,52.966h211.862C444.812,52.966,512,120.154,512,203.034V256
				c0,82.881-67.188,150.069-150.069,150.069H150.069C67.188,406.069,0,338.881,0,256v-52.966
				C0,120.154,67.188,52.966,150.069,52.966z"/>
			<path style="fill:#2C3E50;" d="M476.69,203.034V256c0,63.379-51.379,114.759-114.759,114.759H150.069
				C86.69,370.759,35.31,319.379,35.31,256v-52.966c0-63.379,51.379-114.759,114.759-114.759h211.862
				C425.31,88.276,476.69,139.655,476.69,203.034z"/>
		</g>
		<g>
			<path style="fill:#2FA8CC;" d="M229.517,203.034c0.018,12.255-2.823,24.346-8.298,35.31H78.919
				c-14.577-29.37-9.612-64.678,12.499-88.889s56.825-32.35,87.393-20.491S229.52,170.246,229.517,203.034z"/>
			<path style="fill:#2FA8CC;" d="M441.379,203.034c0.018,12.255-2.823,24.346-8.298,35.31H290.781
				c-14.577-29.37-9.612-64.678,12.499-88.889c22.111-24.211,56.825-32.35,87.393-20.491S441.382,170.246,441.379,203.034z"/>
		</g>
		<g>
			<path style="fill:#67B9CC;" d="M189.44,238.345c8.775-9.664,13.623-22.257,13.594-35.31c0-29.252-23.713-52.966-52.966-52.966
				s-52.966,23.713-52.966,52.966c-0.029,13.053,4.819,25.647,13.594,35.31"/>
			<path style="fill:#67B9CC;" d="M401.302,238.345c8.775-9.664,13.623-22.257,13.594-35.31c0-29.252-23.713-52.966-52.966-52.966
				s-52.966,23.713-52.966,52.966c-0.029,13.053,4.819,25.647,13.594,35.31"/>
		</g>
		<g>
			<circle style="fill:#65DDB9;" cx="136.828" cy="198.621" r="13.241"/>
			<circle style="fill:#65DDB9;" cx="348.69" cy="198.621" r="13.241"/>
		</g>
	</g>
	<path style="fill:#F0C419;" d="M347.817,273.655c3.95-0.342,7.821,1.25,10.388,4.272s3.511,7.1,2.534,10.942
		c-10.566,31.69-53.447,55.406-104.738,55.406s-94.173-23.716-104.738-55.406c-0.977-3.843-0.032-7.92,2.534-10.942
		s6.438-4.614,10.388-4.272H347.817z"/>
</g>
<g>
</g>
<g>
</g>
<g>
</g>
<g>
</g>
<g>
</g>
<g>
</g>
<g>
</g>
<g>
</g>
<g>
</g>
<g>
</g>
<g>
</g>
<g>
</g>
<g>
</g>
<g>
</g>
<g>
</g>
</svg>
