<?xml version="1.0" encoding="UTF-8"?>
<svg enable-background="new 0 0 512 512" version="1.1" viewBox="0 0 512 512" xml:space="preserve"
     xmlns="http://www.w3.org/2000/svg" fill="white">
		<path d="m225.47 0c-124.32 0-225.47 101.15-225.47 225.47 0 124.33 101.15 225.47 225.47 225.47 124.33 0 225.47-101.14 225.47-225.47 0-124.32-101.14-225.47-225.47-225.47zm0 409.32c-101.37 0-183.85-82.475-183.85-183.85s82.475-183.85 183.85-183.85 183.85 82.475 183.85 183.85-82.475 183.85-183.85 183.85z"/>
    <path d="m505.9 476.47-119.33-119.33c-8.131-8.131-21.299-8.131-29.43 0-8.131 8.124-8.131 21.306 0 29.43l119.33 119.33c4.065 4.065 9.387 6.098 14.715 6.098 5.321 0 10.649-2.033 14.715-6.098 8.131-8.124 8.131-21.306 0-29.43z"/>
</svg>
