<?xml version="1.0" encoding="UTF-8"?>
<svg enable-background="new 0 0 512 512" fill="white" version="1.1" viewBox="0 0 512 512" xml:space="preserve" xmlns="http://www.w3.org/2000/svg">
		<path d="m508.88 493.79-155.79-155.79c32.358-35.927 52.245-83.296 52.245-135.34-1e-3 -111.75-90.917-202.67-202.67-202.67s-202.67 90.917-202.67 202.67 90.917 202.67 202.67 202.67c52.043 0 99.411-19.887 135.34-52.245l155.79 155.79c2.083 2.083 4.813 3.125 7.542 3.125s5.458-1.042 7.542-3.125c4.166-4.167 4.166-10.917-1e-3 -15.083zm-306.21-109.79c-99.979 0-181.33-81.344-181.33-181.33s81.354-181.33 181.33-181.33 181.33 81.344 181.33 181.33-81.354 181.33-181.33 181.33z"/>
</svg>
