<svg width="27" height="25" viewBox="0 0 27 25" fill="#8091BD" xmlns="http://www.w3.org/2000/svg">
<path d="M12.5489 0.927049C12.8483 0.00573874 14.1517 0.0057404 14.4511 0.927051L16.7555 8.01925C16.8893 8.43128 17.2733 8.71024 17.7065 8.71024H25.1637C26.1324 8.71024 26.5352 9.94985 25.7515 10.5193L19.7185 14.9025C19.368 15.1571 19.2213 15.6085 19.3552 16.0205L21.6596 23.1127C21.959 24.034 20.9045 24.8001 20.1208 24.2307L14.0878 19.8475C13.7373 19.5929 13.2627 19.5929 12.9122 19.8475L6.87923 24.2307C6.09551 24.8001 5.04103 24.034 5.34039 23.1127L7.64478 16.0205C7.77866 15.6085 7.632 15.1571 7.28151 14.9025L1.24852 10.5193C0.464807 9.94985 0.867584 8.71024 1.83631 8.71024H9.29349C9.72672 8.71024 10.1107 8.43128 10.2445 8.01925L12.5489 0.927049Z"/>
</svg>
